<svg width="337" height="111" viewBox="0 0 337 111" fill="none" xmlns="http://www.w3.org/2000/svg">
<ellipse cx="47.5" cy="57" rx="47.5" ry="47" fill="url(#paint0_linear_502_25)"/>
<rect x="24" y="52.137" width="11.0844" height="30.7625" rx="5.54218" transform="rotate(-44.88 24 52.137)" fill="#CFCBFE"/>
<ellipse cx="56.5875" cy="55.7207" rx="5.54848" ry="5.24023" fill="white"/>
<circle cx="66.7598" cy="45.2402" r="5.24023" fill="white"/>
<path d="M160.22 75.498C160.22 76.7513 160.251 78.224 160.314 79.916C160.377 81.5453 160.377 83.0493 160.314 84.428C160.314 84.7413 160.314 85.0547 160.314 85.368C160.314 85.6813 160.251 85.9947 160.126 86.308C160.126 86.3707 160.095 86.4333 160.032 86.496C159.969 86.7467 159.844 86.966 159.656 87.154C159.468 87.2793 159.28 87.4047 159.092 87.53C159.029 87.6553 158.904 87.7807 158.716 87.906C158.591 88.0313 158.465 88.188 158.34 88.376C158.277 88.5013 158.183 88.658 158.058 88.846C157.933 89.034 157.807 89.222 157.682 89.41C157.619 89.4727 157.557 89.5353 157.494 89.598C157.431 89.6607 157.369 89.7547 157.306 89.88C156.993 90.256 156.648 90.632 156.272 91.008C155.959 91.384 155.645 91.7913 155.332 92.23L154.674 93.17C154.423 93.4833 154.204 93.7967 154.016 94.11C153.828 94.4233 153.609 94.7367 153.358 95.05C153.233 95.1753 153.17 95.238 153.17 95.238C152.982 95.4887 152.637 95.7707 152.136 96.084C152.073 96.1467 152.011 96.178 151.948 96.178C151.885 96.2407 151.791 96.3033 151.666 96.366C151.541 96.4287 151.384 96.554 151.196 96.742C151.008 96.93 150.82 97.0553 150.632 97.118C150.381 97.1807 150.099 97.118 149.786 96.93C149.535 96.8047 149.316 96.6793 149.128 96.554C149.003 96.4287 148.909 96.366 148.846 96.366C148.971 96.2407 148.877 96.3033 148.564 96.554C148.313 96.8047 148.125 96.9927 148 97.118C147.875 98.434 147.812 99.75 147.812 101.066C147.812 102.445 147.749 103.823 147.624 105.202C147.561 105.766 147.624 106.455 147.812 107.27C148 108.085 147.812 108.555 147.248 108.68C146.684 108.743 146.465 108.335 146.59 107.458C146.778 106.581 146.872 105.86 146.872 105.296C146.809 103.855 146.747 102.445 146.684 101.066C146.684 99.6873 146.621 98.3087 146.496 96.93C146.433 96.8673 146.402 96.8047 146.402 96.742C146.339 96.742 146.277 96.7107 146.214 96.648L145.744 95.896C145.493 95.3947 145.211 94.862 144.898 94.298C144.647 93.734 144.365 93.2013 144.052 92.7L142.642 90.256C142.579 90.0053 142.485 89.7547 142.36 89.504C142.235 89.316 142.109 89.0653 141.984 88.752L141.89 88.658C141.827 89.034 141.796 89.41 141.796 89.786C141.796 90.2247 141.733 90.632 141.608 91.008C141.545 91.0707 141.483 91.196 141.42 91.384C141.357 91.572 141.295 91.6347 141.232 91.572C141.169 91.2587 141.107 90.914 141.044 90.538C141.044 90.2247 141.044 89.9427 141.044 89.692C140.793 90.1933 140.637 90.538 140.574 90.726C140.386 91.1647 140.198 91.6033 140.01 92.042C139.822 92.5433 139.603 93.0447 139.352 93.546C139.164 93.9847 138.851 94.5487 138.412 95.238C138.412 95.3007 138.381 95.332 138.318 95.332C138.255 95.4573 138.099 95.6453 137.848 95.896C137.723 96.0213 137.629 96.084 137.566 96.084C137.441 96.5227 137.347 96.9613 137.284 97.4C137.284 97.9013 137.253 98.4027 137.19 98.904C137.127 99.2173 137.065 99.4993 137.002 99.75C136.939 100.063 136.877 100.377 136.814 100.69C136.751 100.815 136.657 101.003 136.532 101.254C136.469 101.567 136.407 101.661 136.344 101.536C136.219 100.847 136.25 100.063 136.438 99.186C136.626 98.3713 136.469 97.7447 135.968 97.306C135.78 97.118 135.686 97.212 135.686 97.588C135.686 97.964 135.717 98.434 135.78 98.998C135.905 99.562 135.968 100.032 135.968 100.408C135.968 100.847 135.843 100.972 135.592 100.784C135.091 100.345 134.965 99.6873 135.216 98.81C135.467 97.9953 135.467 97.2747 135.216 96.648C135.153 96.3347 135.122 96.5227 135.122 97.212C135.185 97.9013 135.091 98.3713 134.84 98.622C134.777 98.7473 134.715 98.622 134.652 98.246C134.652 97.9327 134.589 97.682 134.464 97.494C134.401 97.3687 134.276 97.0867 134.088 96.648C133.963 96.2093 133.743 96.084 133.43 96.272C133.43 96.272 133.399 96.272 133.336 96.272C133.336 96.272 133.336 96.3033 133.336 96.366C133.211 96.4913 132.991 96.742 132.678 97.118C132.365 97.5567 131.989 97.964 131.55 98.34C131.55 98.34 131.425 98.4027 131.174 98.528C131.111 99.2173 131.174 100.157 131.362 101.348C131.55 102.539 131.738 103.698 131.926 104.826C132.114 106.017 132.145 106.988 132.02 107.74C131.895 108.492 131.487 108.805 130.798 108.68C130.109 108.555 129.701 108.085 129.576 107.27C129.451 106.455 129.451 105.484 129.576 104.356C129.764 103.291 129.952 102.194 130.14 101.066C130.391 100.001 130.485 99.092 130.422 98.34C130.359 98.34 130.328 98.3087 130.328 98.246C130.328 98.246 130.297 98.246 130.234 98.246C130.171 98.246 130.14 98.2147 130.14 98.152C130.015 98.0267 129.889 97.8387 129.764 97.588C129.639 97.4627 129.513 97.2747 129.388 97.024C129.075 96.272 128.761 95.4573 128.448 94.58L127.038 91.76C126.975 91.6347 126.913 91.5093 126.85 91.384C126.85 91.2587 126.787 91.1333 126.662 91.008C126.349 90.8827 126.004 90.7573 125.628 90.632C125.315 90.5067 125.001 90.3813 124.688 90.256C124.813 90.1307 124.813 90.0053 124.688 89.88C124.625 89.9427 124.594 90.0053 124.594 90.068C124.594 90.1307 124.594 90.162 124.594 90.162C124.469 90.162 124.281 90.0993 124.03 89.974C124.03 89.974 123.999 89.974 123.936 89.974C123.936 89.974 123.936 89.9427 123.936 89.88C123.873 89.9427 123.811 90.0053 123.748 90.068C123.685 90.1933 123.623 90.2873 123.56 90.35C123.184 90.8513 122.808 91.29 122.432 91.666L122.244 91.854C122.244 91.854 122.213 91.854 122.15 91.854C122.15 91.854 122.15 91.8853 122.15 91.948C122.087 91.948 122.025 91.948 121.962 91.948C121.962 92.0107 121.931 92.042 121.868 92.042C121.805 92.982 121.743 94.298 121.68 95.99C121.68 97.7447 121.649 99.468 121.586 101.16C121.586 102.915 121.523 104.262 121.398 105.202C121.398 105.265 121.335 105.327 121.21 105.39C121.085 105.515 121.022 105.547 121.022 105.484C120.646 104.795 120.521 103.792 120.646 102.476C120.771 101.223 120.928 99.8753 121.116 98.434C121.367 97.0553 121.461 95.708 121.398 94.392C121.335 93.1387 120.959 92.1673 120.27 91.478L118.954 89.786C118.891 89.6607 118.797 89.5353 118.672 89.41C118.609 89.2847 118.515 89.1907 118.39 89.128C118.265 88.8773 118.045 88.5953 117.732 88.282C117.732 88.3447 117.701 88.376 117.638 88.376C117.45 88.6267 117.199 88.846 116.886 89.034L116.228 89.316C116.165 89.316 116.134 89.316 116.134 89.316C116.134 89.3787 116.103 89.41 116.04 89.41C116.04 89.5353 116.04 89.7233 116.04 89.974C116.04 90.2873 115.977 90.6947 115.852 91.196L115.1 95.99C115.037 96.4287 114.975 96.836 114.912 97.212C114.849 97.588 114.755 97.964 114.63 98.34C114.567 98.716 114.505 99.2487 114.442 99.938C114.379 100.627 114.317 100.815 114.254 100.502C113.815 99.8127 113.627 98.9353 113.69 97.87C113.753 96.8047 113.878 95.7707 114.066 94.768C114.317 93.828 114.411 93.076 114.348 92.512C114.285 91.948 113.909 91.7913 113.22 92.042C112.343 92.23 111.591 92.1047 110.964 91.666C110.839 91.5407 110.713 91.4153 110.588 91.29C110.463 91.1647 110.337 91.0707 110.212 91.008C110.149 90.8827 110.055 90.726 109.93 90.538C109.867 90.4127 109.836 90.4127 109.836 90.538C109.773 91.1647 109.773 91.9793 109.836 92.982C109.961 94.0473 110.055 95.05 110.118 95.99C110.181 96.9927 110.181 97.7133 110.118 98.152C110.055 98.6533 109.836 98.6533 109.46 98.152C108.896 97.4 108.614 96.5227 108.614 95.52C108.677 94.58 108.802 93.5773 108.99 92.512C109.241 91.5093 109.272 90.538 109.084 89.598C109.021 89.1593 108.99 89.1907 108.99 89.692C109.053 90.256 109.053 90.914 108.99 91.666C108.99 92.418 108.896 92.982 108.708 93.358C108.52 93.7967 108.426 93.5773 108.426 92.7C108.489 91.8227 108.52 91.1647 108.52 90.726L107.862 87.906C107.611 87.7807 107.392 87.6553 107.204 87.53C106.515 87.0287 106.17 86.3393 106.17 85.462V26.242C106.17 25.7407 106.17 25.2393 106.17 24.738C106.17 24.174 106.327 23.6727 106.64 23.234C106.828 22.858 107.204 22.576 107.768 22.388C107.893 22.3253 108.019 22.294 108.144 22.294C108.332 22.2313 108.551 22.2 108.802 22.2H154.674C155.301 22.2 155.959 22.2 156.648 22.2C157.337 22.1373 157.933 22.294 158.434 22.67L158.998 23.234C159.311 23.6727 159.468 24.1427 159.468 24.644V35.736C159.531 35.9867 159.562 36.3 159.562 36.676C159.562 36.9893 159.562 37.3027 159.562 37.616C159.562 37.9293 159.499 38.3367 159.374 38.838C159.374 38.9007 159.343 38.9633 159.28 39.026C159.28 39.026 159.28 39.0573 159.28 39.12C159.217 39.12 159.186 39.1513 159.186 39.214C159.061 39.3393 158.998 39.402 158.998 39.402C158.935 39.5273 158.716 39.7467 158.34 40.06C157.964 40.3733 157.745 40.5613 157.682 40.624C157.557 40.7493 157.431 40.8433 157.306 40.906C157.055 41.0313 156.93 41.094 156.93 41.094C156.93 41.0313 156.93 40.9687 156.93 40.906C156.93 40.906 156.867 40.8747 156.742 40.812C156.617 40.6867 156.335 40.6553 155.896 40.718C155.52 40.8433 155.207 40.906 154.956 40.906C154.517 40.9687 154.079 41 153.64 41C153.264 41 152.857 41.0627 152.418 41.188C151.979 41.3133 151.572 41.5013 151.196 41.752C150.883 41.94 150.538 42.0967 150.162 42.222C149.849 42.2847 149.535 42.3787 149.222 42.504C148.909 42.5667 148.595 42.6607 148.282 42.786C147.969 42.8487 147.655 43.0053 147.342 43.256C147.029 43.444 146.715 43.5693 146.402 43.632C145.963 43.6947 145.462 43.5693 144.898 43.256C144.71 43.068 144.553 42.974 144.428 42.974C144.365 42.974 144.334 42.974 144.334 42.974C144.271 43.162 144.146 43.2873 143.958 43.35C143.707 43.6007 143.394 43.8513 143.018 44.102C142.705 44.29 142.36 44.4467 141.984 44.572C141.545 44.76 141.138 44.8227 140.762 44.76C140.449 44.6347 140.073 44.5407 139.634 44.478C139.383 44.4153 139.101 44.4153 138.788 44.478C138.475 44.478 138.161 44.4467 137.848 44.384C137.221 44.2587 136.626 44.0393 136.062 43.726C135.498 43.4127 134.934 43.0993 134.37 42.786C133.869 42.4727 133.305 42.222 132.678 42.034C132.114 41.7833 131.55 41.564 130.986 41.376L128.73 40.53V45.324L129.106 46.452H151.102C151.791 46.452 152.606 46.4207 153.546 46.358C154.486 46.2953 155.301 46.4207 155.99 46.734C156.053 46.734 156.115 46.7653 156.178 46.828C156.554 47.0787 156.805 47.298 156.93 47.486C157.118 47.7367 157.243 48.0187 157.306 48.332C157.369 48.6453 157.431 48.9587 157.494 49.272C157.494 49.648 157.463 50.0553 157.4 50.494C157.4 50.87 157.4 51.246 157.4 51.622V60.364C157.4 60.6147 157.4 60.8653 157.4 61.116C157.463 61.304 157.463 61.492 157.4 61.68C157.4 61.8053 157.337 61.9933 157.212 62.244C157.212 62.3067 157.181 62.338 157.118 62.338C157.118 62.338 157.118 62.3693 157.118 62.432C156.867 62.9333 156.429 63.3407 155.802 63.654C155.739 63.654 155.708 63.6853 155.708 63.748C155.708 63.748 155.677 63.748 155.614 63.748C155.238 63.9987 154.831 64.1867 154.392 64.312C154.016 64.3747 153.671 64.4687 153.358 64.594C152.857 64.8447 152.355 65.158 151.854 65.534C151.353 65.8473 150.82 66.0667 150.256 66.192C149.943 66.2547 149.598 66.3173 149.222 66.38C148.846 66.38 148.501 66.4427 148.188 66.568C147.875 66.6307 147.561 66.7247 147.248 66.85C146.935 66.9753 146.621 67.1007 146.308 67.226C145.744 67.414 145.18 67.508 144.616 67.508C144.052 67.508 143.519 67.5393 143.018 67.602H142.548C142.423 67.602 142.297 67.6333 142.172 67.696C142.047 67.696 141.921 67.6647 141.796 67.602C141.42 67.5393 141.075 67.4453 140.762 67.32C140.511 67.132 140.229 67.0067 139.916 66.944C139.352 66.8187 138.788 66.8813 138.224 67.132C137.66 67.32 137.096 67.3513 136.532 67.226C136.093 67.1007 135.655 66.8813 135.216 66.568C134.84 66.192 134.401 65.8473 133.9 65.534C133.399 65.2833 132.866 65.0327 132.302 64.782C131.738 64.5313 131.174 64.312 130.61 64.124C130.735 64.124 130.485 64.0613 129.858 63.936C129.231 63.8107 128.855 63.748 128.73 63.748V68.542L129.106 69.67H157.682C158.058 69.67 158.434 69.764 158.81 69.952C158.935 69.952 159.092 70.046 159.28 70.234C159.405 70.2967 159.499 70.3593 159.562 70.422C159.625 70.4847 159.687 70.5787 159.75 70.704C159.875 70.8293 160.001 71.08 160.126 71.456C160.189 71.644 160.22 71.926 160.22 72.302V75.498ZM218.499 84.616C218.499 84.8667 218.468 85.0547 218.405 85.18C218.405 85.9947 218.249 86.59 217.935 86.966C217.873 87.0913 217.747 87.248 217.559 87.436C217.371 87.5613 217.183 87.6867 216.995 87.812C216.306 88.5013 215.993 89.0653 216.055 89.504C216.118 89.9427 216.306 90.3187 216.619 90.632C216.933 90.9453 217.121 91.3213 217.183 91.76C217.246 92.1987 216.933 92.7627 216.243 93.452C216.181 93.64 216.118 93.828 216.055 94.016C216.055 94.2667 215.993 94.4547 215.867 94.58C215.805 94.6427 215.679 94.486 215.491 94.11C215.429 93.7967 215.366 93.452 215.303 93.076C215.241 92.7 215.178 92.324 215.115 91.948C215.053 90.8827 215.021 90.256 215.021 90.068C215.084 89.9427 214.959 89.5353 214.645 88.846L214.269 89.222C214.081 89.41 213.893 89.5667 213.705 89.692C213.58 89.8173 213.423 90.0053 213.235 90.256C212.985 90.632 212.734 91.008 212.483 91.384C212.233 91.76 211.982 92.136 211.731 92.512C211.669 92.5747 211.575 92.7313 211.449 92.982C211.324 93.2327 211.199 93.3893 211.073 93.452C210.76 93.5773 210.509 93.4207 210.321 92.982C210.133 92.5433 209.977 92.2613 209.851 92.136C209.789 91.948 209.726 91.76 209.663 91.572C209.663 91.384 209.601 91.196 209.475 91.008C209.35 90.9453 209.162 90.7887 208.911 90.538C208.786 90.4127 208.692 90.2873 208.629 90.162L207.689 89.034L207.219 88.564C207.094 88.6267 206.937 88.5953 206.749 88.47C206.561 88.3447 206.405 88.2507 206.279 88.188C205.966 88.5013 205.809 88.6893 205.809 88.752C205.308 89.1907 204.869 89.692 204.493 90.256C204.18 90.8827 203.867 91.5093 203.553 92.136C203.491 92.2613 203.365 92.418 203.177 92.606C203.052 92.794 202.895 92.9507 202.707 93.076C202.582 93.2013 202.488 93.264 202.425 93.264C202.363 93.64 202.3 94.016 202.237 94.392C202.237 94.8307 202.175 95.238 202.049 95.614C201.987 95.6767 201.893 95.6453 201.767 95.52C201.705 95.4573 201.673 95.3947 201.673 95.332C201.548 94.8307 201.485 94.4547 201.485 94.204C201.548 94.016 201.454 93.546 201.203 92.794C201.141 92.794 201.078 92.7627 201.015 92.7C201.015 92.6373 200.953 92.5433 200.827 92.418C200.827 92.2927 200.765 92.1987 200.639 92.136C200.577 92.0733 200.545 92.042 200.545 92.042L199.699 90.632L198.571 88.846C198.509 88.5953 198.415 88.3447 198.289 88.094C198.164 87.906 198.039 87.718 197.913 87.53L197.819 87.436C197.569 87.248 197.318 86.9347 197.067 86.496C197.067 86.4333 197.036 86.402 196.973 86.402C196.973 86.3393 196.973 86.2767 196.973 86.214C196.911 85.9007 196.879 85.556 196.879 85.18C196.879 84.7413 196.879 84.2087 196.879 83.582V82.83C196.754 82.9553 196.66 83.0807 196.597 83.206L196.315 83.488C195.751 84.1773 195.125 84.804 194.435 85.368C194.185 85.9947 193.997 86.6527 193.871 87.342C193.746 87.9687 193.527 88.5953 193.213 89.222C193.151 89.4727 193.025 89.7233 192.837 89.974C192.712 90.2873 192.524 90.538 192.273 90.726C192.211 90.7887 192.023 90.8513 191.709 90.914C191.459 90.9767 191.302 90.9767 191.239 90.914C191.177 90.726 191.145 90.5067 191.145 90.256C191.145 90.068 191.145 89.88 191.145 89.692C191.083 89.88 190.989 90.0367 190.863 90.162C190.801 90.35 190.707 90.5067 190.581 90.632C190.519 90.7573 190.425 90.8513 190.299 90.914C190.174 91.0393 190.049 91.1647 189.923 91.29C189.735 92.2927 189.579 93.2327 189.453 94.11C189.391 95.05 189.297 96.0213 189.171 97.024C189.109 97.2747 189.046 97.5253 188.983 97.776C188.921 98.0893 188.827 98.4027 188.701 98.716C188.701 99.0293 188.607 99.28 188.419 99.468C188.357 99.5307 188.231 99.468 188.043 99.28C187.981 99.1547 187.918 98.998 187.855 98.81C187.793 98.6847 187.73 98.5593 187.667 98.434C187.605 98.1207 187.479 97.588 187.291 96.836C187.103 96.1467 186.947 95.6767 186.821 95.426C186.759 95.1753 186.696 94.8933 186.633 94.58C186.571 94.3293 186.508 94.0787 186.445 93.828C186.383 93.64 186.32 93.4207 186.257 93.17C186.257 92.982 186.195 92.7627 186.069 92.512L185.787 92.23C185.599 91.9793 185.411 91.6973 185.223 91.384C185.035 91.1333 184.847 90.8827 184.659 90.632C184.597 90.444 184.503 90.256 184.377 90.068C184.252 89.9427 184.127 89.7547 184.001 89.504C183.939 89.3787 183.876 89.2533 183.813 89.128C183.751 89.0653 183.657 89.0027 183.531 88.94H182.779C178.706 88.8147 175.197 87.8433 172.251 86.026C169.369 84.2087 167.363 81.89 166.235 79.07C166.173 78.882 166.11 78.694 166.047 78.506C165.985 78.318 165.922 78.13 165.859 77.942C165.859 77.8793 165.828 77.8167 165.765 77.754C165.765 77.6913 165.765 77.6287 165.765 77.566C165.703 77.2527 165.64 76.9707 165.577 76.72C165.515 76.4067 165.452 76.1247 165.389 75.874C165.327 75.498 165.295 75.122 165.295 74.746C165.295 74.3073 165.295 73.9 165.295 73.524C165.295 73.2733 165.295 73.054 165.295 72.866C165.358 72.678 165.389 72.4587 165.389 72.208L165.483 71.55C165.671 70.5473 165.953 69.6387 166.329 68.824C167.207 66.8187 168.554 65.0953 170.371 63.654C170.747 63.3407 171.123 63.0587 171.499 62.808C171.875 62.5573 172.283 62.3067 172.721 62.056L173.943 61.398C174.069 61.2727 174.225 61.1473 174.413 61.022C174.601 60.8967 174.789 60.8027 174.977 60.74C175.103 60.6147 175.259 60.5207 175.447 60.458C175.635 60.3953 175.823 60.3327 176.011 60.27C176.701 59.9567 177.39 59.706 178.079 59.518C178.831 59.33 179.583 59.142 180.335 58.954C181.213 58.7033 182.09 58.484 182.967 58.296C183.907 58.108 184.879 57.92 185.881 57.732L188.137 57.356C189.015 57.2307 189.861 57.1053 190.675 56.98C191.553 56.792 192.43 56.6353 193.307 56.51C193.558 56.51 193.715 56.4787 193.777 56.416L195.845 56.04V54.536C195.845 54.7867 195.814 54.724 195.751 54.348C195.751 53.972 195.751 53.7527 195.751 53.69C195.751 53.7527 195.72 53.69 195.657 53.502C195.657 53.2513 195.657 53.1573 195.657 53.22C195.657 53.1573 195.626 53.0947 195.563 53.032C195.563 52.9693 195.563 52.9067 195.563 52.844C195.438 52.468 195.187 52.092 194.811 51.716C194.749 51.716 194.717 51.716 194.717 51.716C194.717 51.6533 194.655 51.622 194.529 51.622C194.404 51.6847 194.247 51.81 194.059 51.998C193.934 52.186 193.84 52.3427 193.777 52.468C193.589 52.7813 193.37 53.1887 193.119 53.69C192.869 54.1287 192.555 54.442 192.179 54.63C191.741 54.8807 191.333 54.724 190.957 54.16C190.581 53.596 190.268 53.1887 190.017 52.938C189.892 52.8127 189.798 52.75 189.735 52.75L188.889 53.596C188.701 53.7213 188.513 53.8467 188.325 53.972C188.137 54.0973 187.949 54.2227 187.761 54.348C187.385 54.536 186.978 54.6927 186.539 54.818C186.163 54.8807 185.787 54.9747 185.411 55.1C184.659 55.3507 183.907 55.6327 183.155 55.946C182.466 56.1967 181.745 56.3847 180.993 56.51C180.053 56.6353 179.176 56.4473 178.361 55.946C177.547 55.382 176.669 55.1313 175.729 55.194C174.852 55.194 173.975 55.1627 173.097 55.1C172.283 55.0373 171.437 54.8807 170.559 54.63C170.309 54.5047 170.152 54.442 170.089 54.442C170.027 54.442 169.964 54.4733 169.901 54.536C169.839 54.5987 169.776 54.5987 169.713 54.536C169.651 54.4733 169.588 54.4107 169.525 54.348C169.525 54.2853 169.463 54.2227 169.337 54.16C169.275 54.0347 169.181 53.9093 169.055 53.784C168.93 53.6587 168.867 53.596 168.867 53.596C168.805 53.5333 168.711 53.3767 168.585 53.126C168.46 52.75 168.429 52.374 168.491 51.998C168.554 51.5593 168.648 51.152 168.773 50.776C168.836 50.588 168.899 50.4 168.961 50.212C169.024 50.024 169.087 49.8047 169.149 49.554C169.776 48.3633 170.465 47.3293 171.217 46.452C171.907 45.5747 172.721 44.7287 173.661 43.914C174.664 43.0993 175.792 42.3787 177.045 41.752C177.547 41.3133 178.142 40.9373 178.831 40.624C179.458 40.3107 180.116 40.06 180.805 39.872C181.557 39.684 182.309 39.5273 183.061 39.402C184.503 39.026 186.069 38.744 187.761 38.556C189.453 38.3053 191.302 38.18 193.307 38.18H195.187C195.563 38.18 195.908 38.18 196.221 38.18C196.535 38.18 196.785 38.2113 196.973 38.274L197.631 38.368H198.101C198.916 38.368 199.511 38.462 199.887 38.65C200.953 38.7127 202.018 38.9007 203.083 39.214C203.835 39.3393 204.556 39.496 205.245 39.684C205.997 39.872 206.655 40.1227 207.219 40.436C208.034 40.6867 208.817 41.0627 209.569 41.564C210.384 42.0653 211.105 42.5667 211.731 43.068C211.731 43.1307 211.731 43.162 211.731 43.162C211.794 43.162 211.825 43.162 211.825 43.162C212.013 43.2873 212.17 43.444 212.295 43.632C212.483 43.7573 212.64 43.8827 212.765 44.008C215.773 46.7027 217.559 50.306 218.123 54.818C218.186 54.8807 218.217 54.9747 218.217 55.1C218.405 56.416 218.468 57.732 218.405 59.048C218.405 60.364 218.405 61.68 218.405 62.996V82.454C218.405 82.7673 218.405 83.112 218.405 83.488C218.468 83.864 218.499 84.24 218.499 84.616ZM196.127 68.918V67.79C196.127 67.7273 196.065 67.7273 195.939 67.79C195.877 67.79 195.783 67.8213 195.657 67.884C195.595 67.884 195.532 67.884 195.469 67.884C195.219 68.0093 194.937 68.1347 194.623 68.26C194.31 68.3227 193.997 68.4167 193.683 68.542C193.057 68.7927 192.399 68.9807 191.709 69.106C191.083 69.1687 190.425 69.2627 189.735 69.388C189.422 69.4507 189.077 69.5447 188.701 69.67C188.325 69.7953 187.981 69.952 187.667 70.14C187.417 70.328 187.229 70.516 187.103 70.704C186.665 71.268 186.445 71.832 186.445 72.396C186.445 72.8347 186.665 73.3987 187.103 74.088C187.229 74.1507 187.354 74.2447 187.479 74.37C187.667 74.4327 187.855 74.5267 188.043 74.652L188.513 74.84C189.328 74.9027 189.767 74.9653 189.829 75.028C189.892 75.028 190.268 74.9967 190.957 74.934C193.652 74.558 195.281 73.0227 195.845 70.328C195.971 69.952 196.033 69.6073 196.033 69.294C196.033 69.106 196.065 68.9807 196.127 68.918ZM275.658 73.806C275.47 76.438 274.624 78.788 273.12 80.856C273.057 80.9813 272.963 81.1067 272.838 81.232C272.713 81.3573 272.587 81.4827 272.462 81.608C272.211 81.8587 271.929 82.1407 271.616 82.454C271.303 82.7673 270.958 83.0807 270.582 83.394C270.269 83.8327 269.955 84.3027 269.642 84.804C269.391 85.3053 269.078 85.7753 268.702 86.214C268.451 86.4647 268.263 86.5273 268.138 86.402C267.637 87.53 267.135 88.5013 266.634 89.316C266.509 89.5667 266.352 89.786 266.164 89.974C265.976 90.2247 265.788 90.4753 265.6 90.726C265.349 90.9767 265.224 91.0707 265.224 91.008C265.161 90.5067 265.13 89.974 265.13 89.41C265.13 88.9087 265.099 88.4073 265.036 87.906C264.848 88.0313 264.691 88.188 264.566 88.376C264.503 88.4387 264.441 88.47 264.378 88.47C264.315 88.5327 264.253 88.6267 264.19 88.752C264.127 89.3787 264.065 90.0367 264.002 90.726C263.939 91.4153 263.845 92.1047 263.72 92.794C263.657 93.1073 263.595 93.5773 263.532 94.204C263.469 94.8307 263.375 94.9873 263.25 94.674C262.937 93.6713 262.874 92.9193 263.062 92.418C263.25 91.9793 263.093 91.196 262.592 90.068C262.529 90.5067 262.498 90.9453 262.498 91.384C262.498 91.8227 262.467 92.2613 262.404 92.7C262.404 92.7627 262.341 92.794 262.216 92.794C262.153 92.794 262.091 92.8253 262.028 92.888C261.965 92.888 261.903 92.888 261.84 92.888C261.84 92.9507 261.777 92.982 261.652 92.982C261.276 93.2953 260.931 93.64 260.618 94.016C260.179 94.5173 259.803 95.144 259.49 95.896C259.427 95.9587 259.365 96.0527 259.302 96.178C259.239 96.3033 259.177 96.4287 259.114 96.554C259.051 96.6793 258.957 96.836 258.832 97.024C258.769 97.2747 258.738 97.3687 258.738 97.306C258.613 96.178 258.55 95.05 258.55 93.922C258.55 92.794 258.487 91.666 258.362 90.538C258.237 90.4127 258.111 90.35 257.986 90.35C257.861 90.4127 257.735 90.444 257.61 90.444C257.485 90.5067 257.359 90.5693 257.234 90.632C256.858 90.7573 256.513 90.82 256.2 90.82C256.2 90.8827 256.169 90.914 256.106 90.914C256.106 90.914 256.106 90.9453 256.106 91.008C255.479 91.6973 255.166 92.042 255.166 92.042C255.166 92.042 255.291 91.9167 255.542 91.666C255.793 91.4153 255.949 91.2587 256.012 91.196C256.137 91.196 255.918 91.5407 255.354 92.23C255.229 92.3553 255.103 92.5433 254.978 92.794C254.915 92.8567 254.853 92.982 254.79 93.17C254.727 93.358 254.665 93.4207 254.602 93.358C254.414 93.0447 254.32 92.5433 254.32 91.854C254.383 91.2273 254.351 91.0707 254.226 91.384C254.038 91.6973 254.007 92.1047 254.132 92.606C254.257 93.17 254.32 93.64 254.32 94.016C254.383 94.4547 254.226 94.674 253.85 94.674C253.286 94.674 253.098 94.2667 253.286 93.452C253.537 92.6373 253.599 91.948 253.474 91.384C253.474 91.3213 253.349 91.29 253.098 91.29C252.91 91.29 252.785 91.2587 252.722 91.196C252.534 91.196 252.377 91.1333 252.252 91.008C252.189 91.572 252.158 92.136 252.158 92.7C252.158 93.264 252.095 93.828 251.97 94.392C251.907 94.58 251.845 94.5173 251.782 94.204C251.719 93.8907 251.657 93.6713 251.594 93.546C251.531 93.358 251.469 93.17 251.406 92.982C251.343 92.8567 251.281 92.7313 251.218 92.606L250.372 90.444C250.372 90.6947 250.341 90.9767 250.278 91.29C250.278 91.666 250.215 91.9793 250.09 92.23C250.027 92.3553 249.965 92.2613 249.902 91.948C249.902 91.6973 249.839 91.5093 249.714 91.384L248.586 88.94H248.022C242.445 88.8147 237.933 88 234.486 86.496C231.039 84.9293 228.501 83.1747 226.872 81.232C226.621 80.9187 226.339 80.574 226.026 80.198C225.775 79.822 225.556 79.446 225.368 79.07C225.117 78.6313 224.929 78.224 224.804 77.848C224.679 77.4093 224.553 77.002 224.428 76.626C224.24 75.874 224.209 75.216 224.334 74.652C224.334 74.5267 224.365 74.4013 224.428 74.276C224.491 74.1507 224.553 74.0567 224.616 73.994C224.679 73.8687 224.804 73.712 224.992 73.524C225.368 73.148 225.838 72.96 226.402 72.96C226.903 72.8347 227.561 72.8033 228.376 72.866C229.191 72.9287 229.911 72.96 230.538 72.96H239.092C239.781 72.96 240.502 72.9287 241.254 72.866C242.006 72.8033 242.727 72.8347 243.416 72.96C243.541 73.0227 243.635 73.054 243.698 73.054C243.823 73.054 243.949 73.0853 244.074 73.148C244.513 73.2733 244.92 73.4613 245.296 73.712C245.672 73.9 246.048 74.1507 246.424 74.464L247.082 74.84C247.333 74.9653 247.583 75.0907 247.834 75.216C248.085 75.3413 248.335 75.4667 248.586 75.592C248.899 75.6547 249.15 75.7173 249.338 75.78C249.526 75.78 249.745 75.78 249.996 75.78C250.497 75.78 250.936 75.686 251.312 75.498C251.813 75.31 252.095 74.934 252.158 74.37V73.712C252.095 73.6493 252.064 73.5867 252.064 73.524C251.813 73.0227 251.312 72.6153 250.56 72.302L249.808 72.02C249.683 71.9573 249.557 71.926 249.432 71.926C249.307 71.8633 249.181 71.832 249.056 71.832C248.743 71.7693 248.367 71.7693 247.928 71.832C247.552 71.832 247.207 71.8007 246.894 71.738C246.455 71.6753 246.017 71.5813 245.578 71.456C245.202 71.3307 244.763 71.2993 244.262 71.362C243.949 71.4247 243.604 71.5187 243.228 71.644C242.915 71.7067 242.601 71.7693 242.288 71.832C241.975 71.8947 241.661 71.8947 241.348 71.832C241.035 71.7693 240.721 71.738 240.408 71.738C240.157 71.6753 239.875 71.644 239.562 71.644C239.311 71.644 239.029 71.6127 238.716 71.55C238.027 71.4247 237.306 71.174 236.554 70.798C235.802 70.3593 235.113 69.9207 234.486 69.482C234.047 69.106 233.546 68.6047 232.982 67.978C232.481 67.3513 231.917 66.7247 231.29 66.098C231.102 65.91 231.008 65.816 231.008 65.816C230.945 65.816 230.883 65.8787 230.82 66.004C230.82 66.1293 230.757 66.1607 230.632 66.098C230.569 66.0353 230.507 65.9413 230.444 65.816C230.444 65.6907 230.413 65.5653 230.35 65.44C230.162 65.064 229.88 64.7193 229.504 64.406C229.379 64.2807 229.253 64.1553 229.128 64.03C229.065 63.9047 228.971 63.8107 228.846 63.748C228.971 63.8107 228.877 63.7167 228.564 63.466C228.251 63.1527 228.094 62.9647 228.094 62.902C227.718 62.4007 227.405 61.962 227.154 61.586C226.715 60.834 226.402 60.27 226.214 59.894C226.089 59.4553 225.932 58.9227 225.744 58.296C225.305 56.792 225.117 55.2253 225.18 53.596C225.18 53.408 225.211 53.2513 225.274 53.126C225.587 49.8047 227.248 46.7653 230.256 44.008C233.327 41.188 237.651 39.3707 243.228 38.556C243.541 38.4933 243.855 38.462 244.168 38.462C244.481 38.3993 244.795 38.368 245.108 38.368C245.421 38.3053 245.735 38.274 246.048 38.274C246.424 38.2113 246.769 38.18 247.082 38.18H247.74C248.555 38.1173 249.338 38.086 250.09 38.086C250.905 38.086 251.657 38.1487 252.346 38.274C252.471 38.274 252.565 38.3053 252.628 38.368C256.827 38.6813 260.399 39.5273 263.344 40.906C266.289 42.2847 268.671 43.8827 270.488 45.7C270.739 45.9507 270.958 46.2013 271.146 46.452C271.334 46.64 271.553 46.8907 271.804 47.204C272.556 48.144 273.057 49.1153 273.308 50.118C273.433 50.5567 273.527 51.0267 273.59 51.528C273.653 51.9667 273.59 52.4053 273.402 52.844C273.339 52.9067 273.308 53.0007 273.308 53.126C273.245 53.126 273.214 53.1573 273.214 53.22L272.556 53.878C272.493 53.878 272.431 53.9093 272.368 53.972C272.368 53.972 272.337 53.972 272.274 53.972C272.274 54.0347 272.243 54.1913 272.18 54.442C272.117 54.63 272.023 54.724 271.898 54.724C271.898 54.724 271.867 54.724 271.804 54.724C271.804 54.724 271.773 54.6927 271.71 54.63C271.71 54.63 271.647 54.5673 271.522 54.442H271.24C271.24 54.5047 271.209 54.5673 271.146 54.63C271.146 54.63 271.146 54.6613 271.146 54.724C271.083 55.1 271.083 55.5073 271.146 55.946C271.209 56.3847 271.083 56.7607 270.77 57.074C270.582 57.3247 270.488 57.1993 270.488 56.698C270.551 56.134 270.519 55.7267 270.394 55.476C270.331 55.4133 270.269 55.4447 270.206 55.57C270.143 55.6953 270.081 55.7893 270.018 55.852L268.89 56.98C268.013 57.732 266.979 58.2647 265.788 58.578C265.287 58.7033 264.848 58.766 264.472 58.766C266.979 59.7687 269.015 60.9593 270.582 62.338C272.149 63.654 273.339 65.1267 274.154 66.756C274.405 67.132 274.561 67.414 274.624 67.602C274.875 68.2287 275.094 68.8553 275.282 69.482C275.47 70.046 275.595 70.6727 275.658 71.362V73.806ZM257.328 56.98C257.955 57.0427 258.55 57.1367 259.114 57.262C259.678 57.3873 260.242 57.5127 260.806 57.638C260.555 57.3873 260.273 57.168 259.96 56.98C259.647 56.7293 259.333 56.51 259.02 56.322C258.393 56.4473 257.704 56.5727 256.952 56.698C256.263 56.7607 255.573 56.6667 254.884 56.416C254.069 56.1027 253.38 55.6327 252.816 55.006C252.252 54.3793 251.657 53.784 251.03 53.22C250.717 53.3453 250.372 53.3453 249.996 53.22C249.745 53.0947 249.495 52.9693 249.244 52.844C248.993 52.656 248.711 52.468 248.398 52.28C248.273 52.1547 248.147 52.0293 248.022 51.904C247.897 51.7787 247.771 51.7473 247.646 51.81C247.333 51.998 247.145 52.2173 247.082 52.468V52.562C247.019 52.6247 246.988 52.7187 246.988 52.844V53.408C247.051 53.4707 247.082 53.5333 247.082 53.596C247.207 53.8467 247.395 54.0973 247.646 54.348C247.897 54.5987 248.147 54.7867 248.398 54.912C248.649 55.0373 248.805 55.1 248.868 55.1C249.432 55.3507 250.184 55.6013 251.124 55.852C252.064 56.04 253.255 56.2907 254.696 56.604L256.952 56.886C256.889 56.886 256.952 56.9173 257.14 56.98C257.391 57.0427 257.453 57.0427 257.328 56.98ZM315.405 100.878C315.343 101.191 315.311 101.693 315.311 102.382C315.311 103.071 315.217 103.259 315.029 102.946C314.779 102.445 314.716 101.849 314.841 101.16C315.029 100.533 314.967 99.9693 314.653 99.468C314.528 99.2173 314.465 99.3427 314.465 99.844C314.465 100.408 314.465 100.941 314.465 101.442C314.465 101.943 314.403 102.1 314.277 101.912C314.027 101.285 313.933 100.627 313.995 99.938C314.121 99.3113 314.121 98.6847 313.995 98.058C313.682 97.8073 313.369 97.5253 313.055 97.212C312.805 96.8987 312.585 96.6167 312.397 96.366C312.147 96.0527 311.927 95.7393 311.739 95.426C311.551 95.1753 311.363 94.9247 311.175 94.674C310.674 94.1727 310.204 93.546 309.765 92.794L308.637 90.82C308.637 90.7573 308.543 90.538 308.355 90.162C308.167 89.8487 308.011 89.6293 307.885 89.504C307.76 89.3787 307.635 89.2847 307.509 89.222C307.259 89.222 307.133 89.316 307.133 89.504C307.071 90.1307 307.039 90.726 307.039 91.29C307.039 91.9167 306.977 92.5433 306.851 93.17C306.851 93.2953 306.82 93.2013 306.757 92.888C306.695 92.5747 306.663 92.324 306.663 92.136C306.601 91.6347 306.538 91.102 306.475 90.538C306.475 89.974 306.444 89.4413 306.381 88.94H305.817C302.057 88.8147 298.642 88.282 295.571 87.342C292.501 86.402 289.869 84.9607 287.675 83.018L287.111 82.548L286.453 81.89C284.824 80.1353 283.477 78.0673 282.411 75.686C281.409 73.3047 280.751 70.4847 280.437 67.226C280.375 67.226 280.343 67.1633 280.343 67.038C280.281 66.9127 280.249 66.5993 280.249 66.098C280.249 66.0353 280.249 65.9727 280.249 65.91C280.312 65.8473 280.343 65.7847 280.343 65.722C280.281 65.4087 280.249 65.0953 280.249 64.782C280.249 64.406 280.249 64.03 280.249 63.654V62.996C280.312 59.236 280.907 55.8833 282.035 52.938C283.163 49.9927 284.73 47.486 286.735 45.418C286.861 45.3553 286.923 45.2927 286.923 45.23C286.986 45.1673 287.049 45.1047 287.111 45.042C287.174 44.9793 287.299 44.8853 287.487 44.76C287.675 44.572 287.769 44.478 287.769 44.478C287.957 44.29 288.114 44.1647 288.239 44.102C292.877 40.154 299.143 38.18 307.039 38.18H309.013C309.264 38.18 309.421 38.2113 309.483 38.274C310.047 38.274 310.455 38.3053 310.705 38.368C311.583 38.3053 312.241 38.368 312.679 38.556C312.993 38.6187 313.306 38.6813 313.619 38.744C313.933 38.744 314.246 38.8067 314.559 38.932C317.818 39.5587 320.638 40.6553 323.019 42.222C325.401 43.726 327.375 45.5433 328.941 47.674C329.255 47.9247 329.505 48.238 329.693 48.614C329.881 48.99 330.069 49.3347 330.257 49.648L331.009 50.964C331.072 51.152 331.135 51.34 331.197 51.528C331.323 51.6533 331.417 51.81 331.479 51.998C331.605 52.186 331.699 52.374 331.761 52.562C331.824 52.75 331.887 52.938 331.949 53.126C332.263 54.0033 332.545 54.912 332.795 55.852C333.109 56.792 333.328 57.732 333.453 58.672C333.453 58.9227 333.485 59.1107 333.547 59.236C333.673 59.7373 333.735 60.2387 333.735 60.74C333.735 61.2413 333.767 61.7427 333.829 62.244V66.568C333.829 67.4453 333.453 68.166 332.701 68.73C332.513 68.8553 332.294 69.0433 332.043 69.294C331.918 69.6073 331.793 69.764 331.667 69.764C331.667 69.764 331.542 69.6387 331.291 69.388C331.166 69.388 330.978 69.4193 330.727 69.482C330.477 69.5447 330.289 69.6073 330.163 69.67C329.913 69.7327 329.693 69.7953 329.505 69.858C329.317 69.858 329.098 69.858 328.847 69.858C328.346 69.9207 327.876 70.046 327.437 70.234C326.999 70.422 326.529 70.5787 326.027 70.704C325.651 70.7667 325.244 70.798 324.805 70.798C324.367 70.798 323.928 70.798 323.489 70.798C322.925 70.8607 322.393 70.986 321.891 71.174C321.453 71.362 320.983 71.4247 320.481 71.362C320.105 71.2993 319.729 71.2367 319.353 71.174C318.977 71.0487 318.57 70.9547 318.131 70.892C317.881 70.9547 317.63 71.0173 317.379 71.08C317.191 71.1427 316.972 71.2053 316.721 71.268C316.533 71.3307 316.345 71.362 316.157 71.362C315.969 71.362 315.781 71.4247 315.593 71.55C315.405 71.6753 315.123 71.926 314.747 72.302H327.625C327.876 72.302 328.127 72.302 328.377 72.302C328.691 72.2393 329.004 72.208 329.317 72.208H329.787C330.163 72.208 330.602 72.2707 331.103 72.396C331.229 72.396 331.323 72.4273 331.385 72.49C331.448 72.49 331.511 72.49 331.573 72.49C332.012 72.678 332.325 73.0227 332.513 73.524C332.639 73.9 332.67 74.2133 332.607 74.464C332.607 74.9027 332.513 75.404 332.325 75.968L332.043 76.72C331.667 77.7227 331.166 78.5687 330.539 79.258C330.289 79.5713 330.038 79.8847 329.787 80.198C329.537 80.5113 329.255 80.8247 328.941 81.138C328.691 81.3887 328.44 81.6393 328.189 81.89C327.939 82.1407 327.657 82.3913 327.343 82.642L326.779 83.206C326.466 83.5193 326.184 83.8953 325.933 84.334C325.745 84.71 325.526 85.086 325.275 85.462C325.087 85.65 324.962 85.8067 324.899 85.932C325.025 85.8067 325.025 85.8693 324.899 86.12C324.774 86.3707 324.649 86.4333 324.523 86.308C324.398 86.6213 324.241 86.9033 324.053 87.154C323.928 87.4047 323.74 87.7807 323.489 88.282C323.364 88.5953 323.207 88.8773 323.019 89.128C322.894 89.4413 322.769 89.7547 322.643 90.068C322.267 90.7573 321.923 91.3213 321.609 91.76C321.547 91.948 321.453 92.1047 321.327 92.23C321.265 92.418 321.171 92.5747 321.045 92.7L320.669 93.264C320.607 93.3267 320.544 93.4207 320.481 93.546C320.419 93.6713 320.325 93.7967 320.199 93.922C319.823 94.3607 319.447 94.768 319.071 95.144C318.695 95.5827 318.319 96.0213 317.943 96.46L317.285 97.118C317.16 97.306 317.003 97.494 316.815 97.682C316.69 97.87 316.533 98.0267 316.345 98.152C316.095 98.4027 315.907 98.528 315.781 98.528C315.719 98.904 315.656 99.28 315.593 99.656C315.593 100.095 315.531 100.502 315.405 100.878ZM303.655 57.356H304.125C304.94 57.356 305.755 57.356 306.569 57.356C307.384 57.2933 308.199 57.2933 309.013 57.356L310.799 57.262V56.134C310.737 56.0713 310.705 56.0087 310.705 55.946C310.705 55.6953 310.674 55.4133 310.611 55.1C310.611 54.7867 310.58 54.5047 310.517 54.254L309.953 52.938C309.891 52.8753 309.859 52.844 309.859 52.844C309.859 52.7813 309.828 52.7187 309.765 52.656C309.452 52.2173 309.107 51.9353 308.731 51.81C308.731 51.7473 308.637 51.716 308.449 51.716H308.355C307.917 51.716 307.478 51.7473 307.039 51.81C306.601 51.81 306.162 51.8413 305.723 51.904C305.598 51.9667 305.41 52.0293 305.159 52.092C304.971 52.092 304.783 52.1547 304.595 52.28C304.533 52.3427 304.501 52.4053 304.501 52.468C304.501 52.468 304.47 52.4993 304.407 52.562C304.282 52.6873 304.188 52.844 304.125 53.032C304.063 53.22 303.969 53.3767 303.843 53.502C303.467 54.5047 303.279 55.2253 303.279 55.664C303.342 56.1027 303.467 56.6667 303.655 57.356ZM306.193 75.216C306.319 75.2787 306.695 75.31 307.321 75.31C307.697 75.1847 308.042 74.9967 308.355 74.746C308.731 74.4953 309.045 74.2447 309.295 73.994L310.141 73.148C310.643 72.772 311.019 72.5527 311.269 72.49C311.52 72.4273 311.802 72.3647 312.115 72.302C311.677 72.1767 311.238 72.0513 310.799 71.926C310.423 71.8007 310.016 71.6753 309.577 71.55C308.888 71.2993 308.199 71.0173 307.509 70.704C306.883 70.3907 306.225 70.1087 305.535 69.858L303.655 69.294C303.53 69.1687 303.405 69.106 303.279 69.106V69.576C303.279 69.6387 303.279 69.9207 303.279 70.422C303.342 70.8607 303.373 71.1427 303.373 71.268C303.436 71.9573 303.593 72.6467 303.843 73.336C304.157 73.9627 304.564 74.464 305.065 74.84L305.817 75.122C305.88 75.1847 306.005 75.216 306.193 75.216Z" fill="url(#paint1_linear_502_25)"/>
<defs>
<linearGradient id="paint0_linear_502_25" x1="47.5" y1="10" x2="47.5" y2="104" gradientUnits="userSpaceOnUse">
<stop stop-color="#8052CD"/>
<stop offset="0.704118" stop-color="#5E319D"/>
</linearGradient>
<linearGradient id="paint1_linear_502_25" x1="101" y1="55.5" x2="337" y2="55.5" gradientUnits="userSpaceOnUse">
<stop stop-color="#7B4DC6"/>
<stop offset="1" stop-color="#5E319D"/>
</linearGradient>
</defs>
</svg>
